<?xml version="1.0" encoding="UTF-8"?>
<svg width="30px" height="27px" viewBox="0 0 30 27" version="1.1" xmlns="http://www.w3.org/2000/svg" xmlns:xlink="http://www.w3.org/1999/xlink">
    <!-- Generator: sketchtool 49.3 (51167) - http://www.bohemiancoding.com/sketch -->
    <title>E8D5AD79-3374-4C05-A3A3-E3E518CDEE7E</title>
    <desc>Created with sketchtool.</desc>
    <defs></defs>
    <g id="Page-1" stroke="none" stroke-width="1" fill="none" fill-rule="evenodd">
        <g id="сраница-клуба-слайдер-мобилка-нет-отывов" transform="translate(-83.000000, -7211.000000)">
            <g id="footer-mobile" transform="translate(-1.000000, 7200.000000)">
                <g id="Group-2" transform="translate(84.000000, 11.000000)">
                    <g id="logo-icon">
                        <g id="logo">
                            <path d="M12.7505943,10 C11.5073296,10 10.5,8.99412114 10.5,7.75044587 C10.5,6.50677059 11.5073296,5.5 12.7505943,5.5 C13.9929675,5.5 15,6.50677059 15,7.75044587 C15,8.99412114 13.9929675,10 12.7505943,10 Z" id="Fill-80" fill="#404042"></path>
                            <path d="M25.2403976,10.3520056 C24.7454012,10.8517991 24.2644548,11.3479761 23.7964778,11.8416216 C24.414683,13.0791709 24.211857,14.6241185 23.182956,15.6558918 L15.6200298,23.2475446 C14.3349844,24.5382558 12.2512439,24.5382558 10.9665587,23.2475446 L3.40471328,15.6558918 C2.11966789,14.3662656 2.11966789,12.2748723 3.40471328,10.9845228 L10.9665587,3.39359334 C12.2512439,2.10324383 14.3349844,2.10324383 15.6200298,3.39359334 L19.8527179,7.64219932 C20.3988711,7.27983098 20.9450244,6.928312 21.4908175,6.58836566 L16.1319585,1.20925728 C14.5641094,-0.364621954 12.0221189,-0.364621954 10.4546301,1.20925728 L1.22874632,10.4706252 C-0.338742462,12.0445044 -0.338742462,14.5959102 1.22874632,16.1705127 L10.4546301,25.4318807 C12.0221189,27.0053983 14.5641094,27.0053983 16.1319585,25.4318807 L25.3585627,16.1705127 C26.9264118,14.5959102 26.9264118,12.0445044 25.3585627,10.4706252 L25.2403976,10.3520056 Z" id="Fill-82" fill="#C11131"></path>
                            <path d="M4.55064544,11.0679995 C4.55064544,11.0679995 9.91962847,14.7452415 13.2513079,22.8864046 C13.4664983,23.4126435 15.0015712,16.0360095 29.5791954,4.64023901 C29.5791954,4.64023901 18.6522641,7.85411924 13.1884392,15.2775538 C13.1884392,15.2775538 9.8312531,12.1869271 4.55064544,11.0679995" id="Fill-85" fill="#404042"></path>
                        </g>
                    </g>
                </g>
            </g>
        </g>
    </g>
</svg>